<svg width="36" height="36" viewBox="0 0 36 36" fill="none" xmlns="http://www.w3.org/2000/svg">
<rect width="36" height="36" rx="18" fill="white"/>
<path d="M23.9998 12.0001C23.8123 11.8126 23.558 11.7073 23.2928 11.7073C23.0277 11.7073 22.7733 11.8126 22.5858 12.0001L17.9998 16.5861L13.4138 12.0001C13.2263 11.8126 12.972 11.7073 12.7068 11.7073C12.4417 11.7073 12.1873 11.8126 11.9998 12.0001C11.8123 12.1876 11.707 12.4419 11.707 12.7071C11.707 12.9722 11.8123 13.2265 11.9998 13.4141L16.5858 18.0001L11.9998 22.5861C11.8123 22.7736 11.707 23.0279 11.707 23.2931C11.707 23.5582 11.8123 23.8125 11.9998 24.0001C12.1873 24.1875 12.4417 24.2928 12.7068 24.2928C12.972 24.2928 13.2263 24.1875 13.4138 24.0001L17.9998 19.4141L22.5858 24.0001C22.7733 24.1875 23.0277 24.2928 23.2928 24.2928C23.558 24.2928 23.8123 24.1875 23.9998 24.0001C24.1873 23.8125 24.2926 23.5582 24.2926 23.2931C24.2926 23.0279 24.1873 22.7736 23.9998 22.5861L19.4138 18.0001L23.9998 13.4141C24.1873 13.2265 24.2926 12.9722 24.2926 12.7071C24.2926 12.4419 24.1873 12.1876 23.9998 12.0001Z" fill="black"/>
</svg>
