<svg width="24" height="24" viewBox="0 0 24 24" fill="none" xmlns="http://www.w3.org/2000/svg">
<path d="M22.6074 4.53516C22.8243 4.5354 23 4.71181 23 4.92871V9.51074C23 9.72765 22.8243 9.90405 22.6074 9.9043C21.2835 9.9043 20.2061 10.844 20.2061 12C20.2061 13.156 21.2836 14.0957 22.6074 14.0957C22.8241 14.096 22.9998 14.2716 23 14.4883V19.0713C23 19.2882 22.8243 19.4646 22.6074 19.4648H1.39355C1.17651 19.4648 1 19.2883 1 19.0713V14.4883C1.00024 14.2714 1.17665 14.0957 1.39355 14.0957C2.71721 14.0955 3.7939 13.1558 3.79395 12C3.79395 10.8441 2.71723 9.90452 1.39355 9.9043C1.17651 9.9043 1 9.7278 1 9.51074V4.92871C1 4.71165 1.17651 4.53516 1.39355 4.53516H22.6074ZM2.57129 8.49707C4.20449 8.96373 5.36523 10.3705 5.36523 12C5.36521 13.6295 4.20455 15.0354 2.57129 15.502V17.8926H21.4287V15.502C19.7955 15.0353 18.6348 13.6295 18.6348 12C18.6348 10.3705 19.7954 8.96361 21.4287 8.49707V6.10645H2.57129V8.49707ZM14.7314 8.71191C14.8856 8.55909 15.134 8.55902 15.2871 8.71191C15.4403 8.86609 15.4403 9.11534 15.2871 9.26855L9.26953 15.2861C9.19292 15.3627 9.09137 15.4014 8.99121 15.4014C8.89023 15.4013 8.79036 15.3626 8.71387 15.2861C8.56067 15.132 8.5607 14.8837 8.71387 14.7305L14.7314 8.71191ZM13.9814 12.5625C14.7652 12.5625 15.4004 13.1977 15.4004 13.9814C15.4004 14.7652 14.7652 15.4004 13.9814 15.4004C13.1978 15.4003 12.5625 14.7651 12.5625 13.9814C12.5625 13.1978 13.1978 12.5626 13.9814 12.5625ZM10.0176 8.59863C10.8013 8.59863 11.4365 9.23383 11.4365 10.0176C11.4365 10.8013 10.8013 11.4365 10.0176 11.4365C9.23394 11.4364 8.59863 10.8013 8.59863 10.0176C8.59866 9.23391 9.23396 8.59875 10.0176 8.59863Z" fill="#550FED"/>
</svg>
