<svg width="630" height="630" viewBox="0 0 630 630" fill="none" xmlns="http://www.w3.org/2000/svg">
<path d="M246.631 627.25C218.28 627.25 191.462 623.418 166.176 615.756C140.89 608.094 118.286 596.6 98.3639 581.275C78.4418 565.951 62.7339 546.795 51.2403 523.808C39.7468 500.82 34 474.002 34 443.353C34 399.677 42.8117 365.196 60.4352 339.911C78.8249 313.859 103.344 294.703 133.994 282.443C165.41 269.417 201.04 260.988 240.884 257.157C280.728 253.326 322.105 251.41 365.014 251.41H422.482C422.482 232.254 418.651 215.78 410.989 201.988C404.093 187.429 393.365 175.936 378.807 167.507C364.248 159.079 346.242 154.864 324.787 154.864C309.462 154.864 294.904 157.163 281.111 161.76C268.085 165.592 256.975 171.338 247.78 179.001C239.352 185.897 233.605 194.709 230.54 205.436H47.7923C53.1559 169.423 64.2664 138.773 81.1236 113.488C98.747 87.4354 120.202 66.3639 145.488 50.2729C171.54 34.1819 200.657 22.3053 232.839 14.6429C265.021 6.2143 297.969 2.00001 331.683 2.00001C420.567 2.00001 486.846 26.9027 530.522 76.7081C574.197 126.514 596.035 198.54 596.035 292.787V618.055H429.378L428.229 538.749C409.073 567.866 387.235 588.555 362.716 600.814C338.196 613.074 315.209 620.353 293.754 622.652C272.3 625.717 256.592 627.25 246.631 627.25ZM292.605 485.879C315.592 485.879 337.047 480.898 356.969 470.937C376.891 460.21 392.982 446.801 405.242 430.71C418.268 413.853 424.781 395.846 424.781 376.69V367.495H312.144C299.884 367.495 287.624 368.261 275.365 369.794C263.871 371.326 253.527 374.391 244.332 378.989C235.137 382.82 227.858 388.567 222.494 396.229C217.131 403.891 214.449 413.852 214.449 426.112C214.449 439.138 217.897 450.249 224.793 459.444C231.689 467.872 240.884 474.385 252.378 478.983C264.637 483.58 278.047 485.879 292.605 485.879Z" fill="#550FED"/>
</svg>
