<svg width="24" height="24" viewBox="0 0 24 24" fill="none" xmlns="http://www.w3.org/2000/svg">
<path d="M11.7125 4.14478C13.048 4.10976 14.357 4.52238 15.4312 5.31665C16.5054 6.11091 17.2833 7.24148 17.6412 8.52856L18.9644 13.2883L18.9722 13.3186C19.0879 13.7525 19.1047 14.2074 19.0201 14.6487C18.9334 15.1 18.7435 15.525 18.4654 15.8909C18.1872 16.2568 17.8284 16.5538 17.4166 16.7581C17.0048 16.9622 16.551 17.0686 16.0914 17.0686H15.0992L15.0181 17.469C14.8812 18.1429 14.5154 18.7486 13.983 19.1838C13.4505 19.6191 12.784 19.8566 12.0963 19.8567C11.4085 19.8567 10.7411 19.6191 10.2086 19.1838C9.67631 18.7487 9.31127 18.1427 9.17438 17.469L9.09235 17.0686H7.90778C7.46137 17.0686 7.02021 16.9678 6.61774 16.7747C6.21545 16.5816 5.86184 16.3004 5.58258 15.9524C5.30318 15.6041 5.10469 15.1969 5.00348 14.762C4.90238 14.3273 4.9008 13.8754 4.99762 13.4397L6.02203 8.83325C6.312 7.52926 7.02915 6.35946 8.06012 5.51001C9.09123 4.66056 10.377 4.1798 11.7125 4.14478ZM9.66364 17.7346C9.84144 18.2376 10.1702 18.6737 10.605 18.9827C11.0401 19.2916 11.5607 19.459 12.0943 19.4612H12.0982C12.6317 19.4589 13.1515 19.2916 13.5865 18.9827C14.0215 18.6737 14.35 18.2377 14.5279 17.7346L14.7642 17.0686H9.42828L9.66364 17.7346ZM11.7232 4.53638C10.4753 4.56907 9.27365 5.01806 8.31012 5.81177C7.34664 6.60551 6.67585 7.69869 6.40485 8.91724L5.38141 13.5247C5.29728 13.9031 5.29941 14.2955 5.38727 14.6731C5.47512 15.0507 5.64668 15.4039 5.88922 15.7063C6.13174 16.0086 6.43922 16.2525 6.78864 16.4202C7.13799 16.5878 7.52028 16.6749 7.90778 16.675H16.0914V16.6741C16.4907 16.6753 16.885 16.5849 17.2427 16.4075C17.6 16.2302 17.9114 15.9726 18.1519 15.6545C18.3951 15.3371 18.561 14.9672 18.6363 14.5745C18.7116 14.1818 18.694 13.7767 18.5855 13.3918H18.5845L17.2632 8.63306C16.9289 7.43023 16.2016 6.37338 15.1978 5.6311C14.1942 4.88897 12.971 4.50379 11.7232 4.53638Z" stroke="#550FED"/>
</svg>
