<svg width="19" height="19" viewBox="0 0 19 19" fill="none" xmlns="http://www.w3.org/2000/svg">
<path d="M13.4577 9.49996C13.4577 9.70992 13.3743 9.91129 13.2258 10.0598C13.0773 10.2082 12.876 10.2916 12.666 10.2916H10.291V12.6666C10.291 12.8766 10.2076 13.078 10.0591 13.2264C9.91068 13.3749 9.70931 13.4583 9.49935 13.4583C9.28939 13.4583 9.08802 13.3749 8.93956 13.2264C8.79109 13.078 8.70768 12.8766 8.70768 12.6666V10.2916H6.33268C6.12272 10.2916 5.92136 10.2082 5.77289 10.0598C5.62442 9.91129 5.54102 9.70992 5.54102 9.49996C5.54102 9.29 5.62442 9.08863 5.77289 8.94017C5.92136 8.7917 6.12272 8.70829 6.33268 8.70829H8.70768V6.33329C8.70768 6.12333 8.79109 5.92197 8.93956 5.7735C9.08802 5.62503 9.28939 5.54163 9.49935 5.54163C9.70931 5.54163 9.91068 5.62503 10.0591 5.7735C10.2076 5.92197 10.291 6.12333 10.291 6.33329V8.70829H12.666C12.876 8.70829 13.0773 8.7917 13.2258 8.94017C13.3743 9.08863 13.4577 9.29 13.4577 9.49996Z" fill="#550FED"/>
</svg>
