<svg width="15" height="15" viewBox="0 0 15 15" fill="none" xmlns="http://www.w3.org/2000/svg">
<g clip-path="url(#clip0_12020_695)">
<path d="M12.6439 6.92412C12.6262 6.84899 12.5902 6.77941 12.539 6.72155C12.4879 6.66369 12.4233 6.61936 12.351 6.59248L8.97538 5.32627L9.83436 1.02959C9.85381 0.929754 9.84027 0.826305 9.79577 0.734848C9.75127 0.643392 9.67823 0.56889 9.58767 0.522586C9.49711 0.476283 9.39395 0.460689 9.29375 0.478158C9.19356 0.495627 9.10176 0.545212 9.03222 0.619429L2.46972 7.65068C2.41642 7.70684 2.37786 7.77533 2.35749 7.85003C2.33712 7.92473 2.33557 8.00332 2.35298 8.07876C2.37039 8.15421 2.40622 8.22416 2.45726 8.28238C2.5083 8.3406 2.57298 8.38527 2.6455 8.4124L6.02225 9.67861L5.16561 13.9706C5.14616 14.0704 5.15971 14.1739 5.20421 14.2653C5.24871 14.3568 5.32175 14.4313 5.41231 14.4776C5.50287 14.5239 5.60603 14.5395 5.70622 14.522C5.80642 14.5046 5.89822 14.455 5.96776 14.3808L12.5303 7.34951C12.5826 7.29333 12.6203 7.22516 12.6402 7.15099C12.66 7.07682 12.6613 6.99891 12.6439 6.92412ZM6.40839 12.5392L7.02186 9.47002C7.04382 9.36117 7.02642 9.24806 6.97277 9.15084C6.91912 9.05362 6.83269 8.9786 6.7289 8.93916L3.6328 7.77607L8.591 2.46396L7.97811 5.5331C7.95616 5.64195 7.97356 5.75506 8.02721 5.85228C8.08086 5.9495 8.16728 6.02451 8.27108 6.06396L11.3648 7.22412L6.40839 12.5392Z" fill="black"/>
</g>
<defs>
<clipPath id="clip0_12020_695">
<rect width="15" height="15" fill="white"/>
</clipPath>
</defs>
</svg>
