<svg width="137" height="36" viewBox="0 0 137 36" fill="none" xmlns="http://www.w3.org/2000/svg">
<path d="M26.707 3.98535C28.4001 3.4214 30.2852 3.44108 32.3613 4.04492C33.6172 4.41022 34.6343 4.92861 35.4121 5.59961C36.223 6.25251 36.861 7.02227 37.3262 7.9082L38.4131 6.18066L42.3418 7.32324V5.17871H48.3516V15.8389C48.3516 16.6201 48.4527 17.326 48.6543 17.9561C48.8811 18.5607 49.247 19.0517 49.751 19.4297C50.2549 19.7824 50.9097 19.9589 51.7158 19.959C52.6231 19.959 53.3042 19.7577 53.7578 19.3545C54.2113 18.9513 54.5009 18.4346 54.627 17.8047C54.7782 17.1495 54.8535 16.4941 54.8535 15.8389V5.17871H60.8262V16.292C60.8262 19.4925 60.0072 21.8116 58.3691 23.248C56.7563 24.6844 54.5382 25.4023 51.7158 25.4023C48.7172 25.4023 46.3987 24.6467 44.7607 23.1348C43.1479 21.6227 42.3418 19.3413 42.3418 16.292V13.3174L39.04 24.6699C38.2646 27.3357 37.2804 29.524 36.0879 31.2344C34.9135 32.9779 33.4209 34.1421 31.6104 34.7275C29.818 35.346 27.6145 35.2751 25 34.5146C23.3596 34.0375 21.9124 33.3253 20.6592 32.377C19.4243 31.4618 18.4973 30.3019 17.877 28.8984C17.3852 27.7858 17.1475 26.5196 17.1641 25.1006H13.0039L12.9658 22.4922C12.3359 23.4496 11.6178 24.13 10.8115 24.5332C10.0051 24.9364 9.2486 25.1754 8.54297 25.251C7.83737 25.3518 7.32077 25.4023 6.99316 25.4023C6.06075 25.4023 5.17829 25.2764 4.34668 25.0244C3.51534 24.7724 2.77223 24.3945 2.11719 23.8906C1.46196 23.3866 0.945398 22.756 0.567383 22C0.189455 21.244 1.65078e-05 20.3624 0 19.3545C0 17.9181 0.289547 16.7838 0.869141 15.9521C1.47396 15.0953 2.28102 14.4657 3.28906 14.0625C4.32225 13.6341 5.49432 13.3565 6.80469 13.2305C8.11498 13.1045 9.47565 13.042 10.8867 13.042H12.7764C12.7764 12.412 12.6504 11.8696 12.3984 11.416C12.1717 10.9374 11.8194 10.5594 11.3408 10.2822C10.862 10.005 10.2691 9.86621 9.56348 9.86621C9.05955 9.86624 8.58049 9.94159 8.12695 10.0928C7.69867 10.2188 7.33359 10.4082 7.03125 10.6602C6.75407 10.8869 6.56468 11.1765 6.46387 11.5293H0.453125C0.629537 10.3449 0.995397 9.33649 1.5498 8.50488C2.12939 7.64819 2.83546 6.95494 3.66699 6.42578C4.52372 5.89669 5.48177 5.50685 6.54004 5.25488C7.59839 4.97772 8.68227 4.83887 9.79102 4.83887C12.7141 4.83896 14.8937 5.65792 16.3301 7.2959C17.7665 8.93396 18.4853 11.3027 18.4854 14.4023V24.3213L23.4189 25.7559C23.446 26.2363 23.5814 26.6795 23.8252 27.084C24.0946 27.496 24.4637 27.8533 24.9316 28.1562C25.392 28.4847 25.9299 28.7381 26.5449 28.917C27.6984 29.2525 28.6409 29.2628 29.3721 28.9473C30.1288 28.6392 30.7293 28.1051 31.1729 27.3447C31.6347 26.6172 31.9959 25.8044 32.2568 24.9072L32.5479 23.9072C31.8446 24.5089 31.0943 24.8893 30.2979 25.0469C29.5271 25.2118 28.7513 25.2502 27.9707 25.1621C27.2083 25.1071 26.5194 24.9904 25.9043 24.8115C23.7512 24.1853 22.1334 23.1999 21.0508 21.8564C19.9937 20.5203 19.3807 18.9933 19.2129 17.2764C19.0782 15.5415 19.2688 13.7899 19.7832 12.0215C20.3573 10.0478 21.2374 8.35727 22.4248 6.95117C23.6196 5.5196 25.0472 4.53117 26.707 3.98535ZM71.8604 4.83887C74.7836 4.83888 76.9639 5.65785 78.4004 7.2959C79.8366 8.93395 80.5547 11.3029 80.5547 14.4023V25.1006H75.0732L75.0352 22.4922C74.4052 23.4496 73.6872 24.13 72.8809 24.5332C72.0746 24.9363 71.3187 25.1753 70.6133 25.251C69.9077 25.3518 69.3901 25.4023 69.0625 25.4023C68.1303 25.4023 67.2485 25.2764 66.417 25.0244C65.5854 24.7724 64.8418 24.3946 64.1865 23.8906C63.5313 23.3866 63.0147 22.756 62.6367 22C62.2588 21.2441 62.0694 20.3623 62.0693 19.3545C62.0693 17.918 62.3598 16.7838 62.9395 15.9521C63.5442 15.0955 64.3505 14.4657 65.3584 14.0625C66.3916 13.6341 67.5636 13.3565 68.874 13.2305C70.1843 13.1045 71.545 13.042 72.9561 13.042H74.8467C74.8467 12.412 74.7207 11.8696 74.4688 11.416C74.242 10.9372 73.8889 10.5594 73.4102 10.2822C72.9314 10.0051 72.3393 9.86625 71.6338 9.86621C71.1299 9.86621 70.6508 9.94163 70.1973 10.0928C69.7689 10.2188 69.403 10.4081 69.1006 10.6602C68.8235 10.8869 68.635 11.1767 68.5342 11.5293H62.5234C62.6999 10.3449 63.0647 9.33648 63.6191 8.50488C64.1987 7.6481 64.9047 6.95498 65.7363 6.42578C66.5931 5.89662 67.551 5.50688 68.6094 5.25488C69.6678 4.97767 70.7515 4.83887 71.8604 4.83887ZM127.29 4.80078C128.777 4.80082 130.087 5.0399 131.221 5.51855C132.38 5.99737 133.363 6.67851 134.17 7.56055C135.001 8.44251 135.618 9.48875 136.021 10.6982C136.45 11.9078 136.664 13.2306 136.664 14.667C136.639 15.0449 136.614 15.4229 136.589 15.8008C136.564 16.1536 136.5 16.5194 136.399 16.8975H123.169C123.245 17.5273 123.434 18.1066 123.736 18.6357C124.039 19.165 124.467 19.5814 125.021 19.8838C125.576 20.1862 126.282 20.3369 127.139 20.3369C127.743 20.3369 128.285 20.2744 128.764 20.1484C129.268 19.9972 129.684 19.795 130.012 19.543C130.339 19.2659 130.554 18.9632 130.654 18.6357H136.551C136.223 20.2232 135.593 21.5213 134.661 22.5293C133.729 23.5121 132.619 24.2438 131.334 24.7227C130.049 25.1761 128.688 25.4023 127.252 25.4023C125.185 25.4023 123.396 24.9869 121.884 24.1553C120.397 23.3237 119.251 22.1516 118.444 20.6396C117.638 19.1025 117.234 17.3007 117.234 15.2344C117.234 13.1681 117.65 11.3534 118.481 9.79102C119.313 8.22855 120.473 7.00606 121.96 6.12402C123.472 5.24205 125.249 4.80078 127.29 4.80078ZM111.085 5.17871H117.095V10.5088H111.085V16.8213C111.085 17.426 111.173 17.9427 111.35 18.3711C111.526 18.7995 111.803 19.1406 112.181 19.3926C112.584 19.6193 113.101 19.7324 113.73 19.7324C114.36 19.7324 114.877 19.6441 115.28 19.4678C115.683 19.2662 116.024 19.0519 116.301 18.8252L118.002 23.5127C117.473 23.9662 116.843 24.3312 116.112 24.6084C115.407 24.8856 114.701 25.075 113.995 25.1758C113.29 25.3017 112.622 25.3652 111.992 25.3652C109.699 25.3652 107.973 24.7218 106.813 23.4365C105.654 22.1261 105.074 20.3622 105.074 18.1445V10.5088H102.201V5.17871H105.074V0H111.085V5.17871ZM94.3623 4.80078C96.2523 4.8008 97.7267 5.22912 98.7852 6.08594C99.8687 6.91753 100.637 8.03905 101.091 9.4502C101.544 10.8614 101.771 12.4113 101.771 14.0996V25.1006H95.7988V14.7422C95.7988 14.2131 95.7482 13.6963 95.6475 13.1924C95.5466 12.6633 95.3701 12.1842 95.1182 11.7559C94.8914 11.3026 94.5638 10.9502 94.1357 10.6982C93.7073 10.421 93.1521 10.2822 92.4717 10.2822C91.5899 10.2823 90.8469 10.4965 90.2422 10.9248C89.6375 11.3531 89.1962 11.9325 88.9189 12.6631C88.6417 13.3687 88.5029 14.1629 88.5029 15.0449V25.1006H82.4922V5.17871H88.0498L88.3896 7.21973C88.9692 6.56463 89.6119 6.06078 90.3174 5.70801C91.048 5.35528 91.7662 5.11626 92.4717 4.99023C93.2025 4.86423 93.8331 4.80078 94.3623 4.80078ZM9.14746 16.8594C8.74444 16.8594 8.34149 16.8852 7.93848 16.9355C7.56061 16.9859 7.22029 17.0862 6.91797 17.2373C6.61556 17.3633 6.37563 17.5527 6.19922 17.8047C6.02294 18.0566 5.9346 18.3841 5.93457 18.7871C5.93457 19.2155 6.04858 19.5814 6.27539 19.8838C6.50217 20.1608 6.80475 20.3752 7.18262 20.5264C7.58561 20.6774 8.02637 20.7529 8.50488 20.7529C9.26086 20.7529 9.96688 20.5893 10.6221 20.2617C11.2773 19.9089 11.8067 19.4677 12.21 18.9385C12.6383 18.3842 12.8525 17.792 12.8525 17.1621V16.8594H9.14746ZM71.2178 16.8594C70.8146 16.8594 70.411 16.8851 70.0078 16.9355C69.6299 16.986 69.2896 17.0861 68.9873 17.2373C68.6849 17.3633 68.4459 17.5527 68.2695 17.8047C68.0932 18.0567 68.0049 18.384 68.0049 18.7871C68.0049 19.2155 68.1179 19.5814 68.3447 19.8838C68.5715 20.1609 68.874 20.3752 69.252 20.5264C69.6552 20.6776 70.0964 20.7529 70.5752 20.7529C71.3312 20.7529 72.0372 20.5893 72.6924 20.2617C73.3474 19.909 73.8762 19.4676 74.2793 18.9385C74.7077 18.3841 74.9218 17.792 74.9219 17.1621V16.8594H71.2178ZM31.9268 9.84082C30.7733 9.50533 29.7849 9.50908 28.9619 9.85352C28.139 10.198 27.4711 10.7269 26.958 11.4395C26.478 12.1339 26.126 12.8658 25.9023 13.6348C25.6639 14.4548 25.5779 15.2774 25.6436 16.1025C25.7093 16.9279 25.9953 17.6647 26.502 18.3125C27.0342 18.9677 27.8385 19.4515 28.915 19.7646C29.966 20.0703 30.8917 20.0898 31.6924 19.8223C32.493 19.5548 33.1716 19.085 33.7285 18.4131C34.2854 17.741 34.6908 16.9692 34.9443 16.0977C35.2127 15.1749 35.2889 14.2934 35.1719 13.4531C35.0805 12.6204 34.7643 11.8893 34.2246 11.2598C33.718 10.612 32.9521 10.139 31.9268 9.84082ZM127.176 9.60156C126.319 9.60162 125.601 9.76523 125.021 10.0928C124.442 10.4204 124.014 10.8368 123.736 11.3408C123.459 11.8447 123.307 12.3486 123.282 12.8525H130.956C130.956 12.3234 130.818 11.8067 130.541 11.3027C130.289 10.7987 129.885 10.3952 129.331 10.0928C128.777 9.76517 128.058 9.60156 127.176 9.60156Z" fill="black"/>
</svg>
