<svg width="24" height="24" viewBox="0 0 24 24" fill="none" xmlns="http://www.w3.org/2000/svg">
<path d="M16.8403 12.4773C16.4001 14.5326 15.9603 14.9732 15.5205 14.9732C14.8606 14.9732 14.7874 14.386 14.5673 12.9179L13.9074 9.10097C13.394 5.79793 11.6339 4.62347 9.06707 4.62347C5.62022 4.62347 3.49362 6.8991 2.54038 11.5969L1 19.0834H5.47331L7.08644 11.5227C7.52669 9.4674 7.96646 9.02674 8.40671 9.02674C9.0666 9.02674 9.13982 9.61397 9.35994 11.082L10.0198 14.899C10.5333 18.2021 12.2933 19.3765 14.8597 19.3765C18.3066 19.3765 20.4332 17.1009 21.3864 12.4031L23 4.84239H18.5267L16.8399 12.4764L16.8403 12.4773Z" fill="#8200FF"/>
</svg>
