<svg width="24" height="24" viewBox="0 0 24 24" fill="none" xmlns="http://www.w3.org/2000/svg">
<path d="M12.5991 3.29297L10.3521 7.04004L8.96484 5.6543L8.4375 6.25342C5.82525 9.21442 4.5 11.9047 4.5 14.25C4.5 17.9715 7.8645 21 12 21C16.1355 21 19.5 17.9715 19.5 14.25C19.5 10.6785 15.6023 6.27455 13.2788 3.9668L12.5991 3.29297ZM12.8936 5.71729C14.8256 7.73179 18 11.466 18 14.25C18 16.0434 16.9652 17.6282 15.3926 18.5757C15.6165 18.0406 15.75 17.4506 15.75 16.8223C15.75 15.0365 14.4865 12.9183 13.4268 11.4565L12.7939 10.582L11.1328 13.0737L10.0781 12.019L9.58301 12.8364C8.69876 14.2959 8.25 15.6365 8.25 16.8223C8.25 17.4506 8.38349 18.0406 8.60742 18.5757C7.0348 17.6282 6 16.0434 6 14.25C6 12.4583 7.04823 10.2575 9.04248 7.85303L10.6479 9.45996L12.8936 5.71729ZM12.8276 13.2363C13.7501 14.6741 14.25 15.9253 14.25 16.8223C14.25 18.299 13.2405 19.5 12 19.5C10.7595 19.5 9.75 18.299 9.75 16.8223C9.75 16.1308 9.96768 15.3392 10.3989 14.4609L11.3672 15.4277L12.8276 13.2363Z" fill="#F0ADFC"/>
</svg>
