<svg width="20" height="20" viewBox="0 0 20 20" fill="none" xmlns="http://www.w3.org/2000/svg">
<path fill-rule="evenodd" clip-rule="evenodd" d="M9.08203 2.38666C12.7906 2.38666 15.7968 5.39295 15.7969 9.1015C15.7968 10.6623 15.2624 12.097 14.3691 13.2372L17.3936 16.2314C17.7104 16.5451 17.7128 17.0569 17.3994 17.374C17.0856 17.691 16.5739 17.6935 16.2568 17.3798L13.2275 14.3818C12.0859 15.2792 10.6469 15.8163 9.08203 15.8163C5.37372 15.8161 2.36736 12.8098 2.36719 9.1015C2.36724 5.39308 5.37365 2.38688 9.08203 2.38666ZM9.08203 4.00189C6.2658 4.00211 3.98247 6.28523 3.98242 9.1015C3.98259 11.9177 6.26588 14.2009 9.08203 14.2011C11.8984 14.2011 14.1815 11.9178 14.1816 9.1015C14.1816 6.2851 11.8984 4.00189 9.08203 4.00189Z" fill="#62748C"/>
</svg>
