<svg width="16" height="21" viewBox="0 0 16 21" fill="none" xmlns="http://www.w3.org/2000/svg">
<path d="M6.15005 20.759C5.92005 20.759 5.69005 20.719 5.47005 20.639C4.72005 20.359 4.24004 19.659 4.24004 18.859V12.409H1.90005C1.14005 12.409 0.480036 11.979 0.170036 11.289C-0.139964 10.599 -0.0199667 9.81897 0.480033 9.24897L8.05004 0.64897C8.58004 0.04897 9.40005 -0.16103 10.15 0.12897C10.9 0.40897 11.38 1.10897 11.38 1.90897V8.35897H13.7201C14.4801 8.35897 15.14 8.78897 15.45 9.47897C15.76 10.169 15.64 10.949 15.14 11.519L7.57003 20.119C7.20003 20.539 6.68005 20.759 6.15005 20.759ZM9.46004 1.49897C9.37004 1.49897 9.26004 1.52897 9.17004 1.63897L1.60003 10.249C1.44003 10.429 1.50005 10.609 1.53005 10.679C1.56005 10.749 1.66005 10.919 1.90005 10.919H4.99004C5.40004 10.919 5.74004 11.259 5.74004 11.669V18.869C5.74004 19.119 5.92005 19.219 6.00005 19.249C6.08005 19.279 6.28003 19.329 6.44002 19.139L14.01 10.529C14.17 10.349 14.11 10.169 14.08 10.099C14.05 10.029 13.95 9.85897 13.71 9.85897H10.62C10.21 9.85897 9.87005 9.51897 9.87005 9.10897V1.90897C9.87005 1.65897 9.69004 1.55897 9.61004 1.52897C9.58004 1.50897 9.52004 1.49897 9.46004 1.49897Z" fill="#F0ADFC"/>
</svg>
